<svg width="20" height="20" viewBox="0 0 20 20" fill="none" xmlns="http://www.w3.org/2000/svg">
<path fill-rule="evenodd" clip-rule="evenodd" d="M17.2306 4.74395C17.2306 5.69983 16.4557 6.47472 15.4998 6.47472C14.5439 6.47472 13.769 5.69983 13.769 4.74395C13.769 3.78808 14.5439 3.01318 15.4998 3.01318C16.4557 3.01318 17.2306 3.78808 17.2306 4.74395ZM15.7306 4.74395C15.7306 4.8714 15.6273 4.97472 15.4998 4.97472C15.3724 4.97472 15.269 4.8714 15.269 4.74395C15.269 4.6165 15.3724 4.51318 15.4998 4.51318C15.6273 4.51318 15.7306 4.6165 15.7306 4.74395Z" fill="#0F0F0F"/>
<path fill-rule="evenodd" clip-rule="evenodd" d="M18.1397 8.41496L17.3603 8.86496C16.9298 9.11348 16.3794 8.966 16.1309 8.53553C15.8505 8.0499 15.1495 8.0499 14.8691 8.53554C14.6206 8.966 14.0702 9.11349 13.6397 8.86496L12.8603 8.41496C12.4298 8.16643 12.2823 7.616 12.5309 7.18554C12.8113 6.6999 12.4608 6.09285 11.9 6.09285C11.4029 6.09285 11 5.6899 11 5.19285V4.29285C11 3.79579 11.4029 3.39285 11.9 3.39285C12.4608 3.39285 12.8112 2.78579 12.5309 2.30015C12.2823 1.86969 12.4298 1.31926 12.8603 1.07073L13.6397 0.620727C14.0702 0.372199 14.6206 0.519687 14.8691 0.95015C15.1495 1.43579 15.8505 1.4358 16.1309 0.950154C16.3794 0.51969 16.9298 0.372203 17.3603 0.620731L18.1397 1.07073C18.5702 1.31926 18.7177 1.86969 18.4691 2.30015C18.1888 2.78579 18.5392 3.39285 19.1 3.39285C19.5971 3.39285 20 3.79579 20 4.29285V5.19285C20 5.6899 19.5971 6.09285 19.1 6.09285C18.5392 6.09285 18.1887 6.69989 18.4691 7.18553C18.7177 7.616 18.5702 8.16643 18.1397 8.41496ZM12.7126 4.74285C13.6761 4.36866 14.264 3.35039 14.1063 2.32892C14.9121 2.9762 16.0879 2.97621 16.8937 2.32892C16.736 3.35039 17.3239 4.36866 18.2874 4.74285C17.3239 5.11703 16.736 6.13529 16.8937 7.15676C16.0879 6.50948 14.9121 6.50949 14.1063 7.15677C14.264 6.1353 13.6761 5.11704 12.7126 4.74285Z" fill="#0F0F0F"/>
<path d="M8 17.75C7.58579 17.75 7.25 18.0858 7.25 18.5C7.25 18.9142 7.58579 19.25 8 19.25H12C12.4142 19.25 12.75 18.9142 12.75 18.5C12.75 18.0858 12.4142 17.75 12 17.75H8Z" fill="#0F0F0F"/>
<path d="M10.7161 2.20468C10.8363 2.13642 10.9108 2.00625 10.9099 1.86808C10.9087 1.67302 10.7607 1.5 10.5656 1.5H4C1.79086 1.5 0 3.29086 0 5.5V13.5C0 15.7091 1.79086 17.5 4 17.5H16C18.2091 17.5 20 15.7091 20 13.5V10.1408C20 9.84338 19.1473 9.56528 18.8897 9.71399C18.6486 9.85322 18.5 10.1105 18.5 10.389V13.5C18.5 14.8807 17.3807 16 16 16H4C2.61929 16 1.5 14.8807 1.5 13.5V5.5C1.5 4.11929 2.61929 3 4 3H9.27622C9.65096 3 9.9878 2.79499 10.2616 2.5391C10.399 2.41069 10.5515 2.29823 10.7161 2.20468Z" fill="#0F0F0F"/>
</svg>
