<svg width="20" height="21" viewBox="0 0 20 21" fill="none" xmlns="http://www.w3.org/2000/svg">
<path fill-rule="evenodd" clip-rule="evenodd" d="M5 7.5C5 6.39543 5.89543 5.5 7 5.5H13C14.1046 5.5 15 6.39543 15 7.5V13.5C15 14.6046 14.1046 15.5 13 15.5H7C5.89543 15.5 5 14.6046 5 13.5V7.5ZM6.5 7.5C6.5 7.22386 6.72386 7 7 7H13C13.2761 7 13.5 7.22386 13.5 7.5V13.5C13.5 13.7761 13.2761 14 13 14H7C6.72386 14 6.5 13.7761 6.5 13.5V7.5Z" fill="#0F0F0F"/>
<path fill-rule="evenodd" clip-rule="evenodd" d="M6 0.75C6.41421 0.75 6.75 1.08579 6.75 1.5V2.5H7.75V1.5C7.75 1.08579 8.08579 0.75 8.5 0.75C8.91421 0.75 9.25 1.08579 9.25 1.5V2.5H10.75V1.5C10.75 1.08579 11.0858 0.75 11.5 0.75C11.9142 0.75 12.25 1.08579 12.25 1.5V2.5H13.25V1.5C13.25 1.08579 13.5858 0.75 14 0.75C14.4142 0.75 14.75 1.08579 14.75 1.5V2.5702C16.3577 2.87517 17.6248 4.14229 17.9298 5.75H19C19.4142 5.75 19.75 6.08579 19.75 6.5C19.75 6.91421 19.4142 7.25 19 7.25H18V8.25H19C19.4142 8.25 19.75 8.58579 19.75 9C19.75 9.41421 19.4142 9.75 19 9.75H18V11.25H19C19.4142 11.25 19.75 11.5858 19.75 12C19.75 12.4142 19.4142 12.75 19 12.75H18V13.75H19C19.4142 13.75 19.75 14.0858 19.75 14.5C19.75 14.9142 19.4142 15.25 19 15.25H17.9298C17.6248 16.8577 16.3577 18.1248 14.75 18.4298V19.5C14.75 19.9142 14.4142 20.25 14 20.25C13.5858 20.25 13.25 19.9142 13.25 19.5V18.5H12.25V19.5C12.25 19.9142 11.9142 20.25 11.5 20.25C11.0858 20.25 10.75 19.9142 10.75 19.5V18.5H9.25V19.5C9.25 19.9142 8.91421 20.25 8.5 20.25C8.08579 20.25 7.75 19.9142 7.75 19.5V18.5H6.75V19.5C6.75 19.9142 6.41421 20.25 6 20.25C5.58579 20.25 5.25 19.9142 5.25 19.5V18.4298C3.64229 18.1248 2.37517 16.8577 2.0702 15.25H1C0.585786 15.25 0.25 14.9142 0.25 14.5C0.25 14.0858 0.585786 13.75 1 13.75H2V12.75H1C0.585786 12.75 0.25 12.4142 0.25 12C0.25 11.5858 0.585786 11.25 1 11.25H2V9.75H1C0.585786 9.75 0.25 9.41421 0.25 9C0.25 8.58579 0.585786 8.25 1 8.25H2V7.25H1C0.585786 7.25 0.25 6.91421 0.25 6.5C0.25 6.08579 0.585786 5.75 1 5.75H2.0702C2.37517 4.14229 3.64229 2.87517 5.25 2.5702V1.5C5.25 1.08579 5.58579 0.75 6 0.75ZM3.5 6.5C3.5 5.11929 4.61929 4 6 4H14C15.3807 4 16.5 5.11929 16.5 6.5V14.5C16.5 15.8807 15.3807 17 14 17H6C4.61929 17 3.5 15.8807 3.5 14.5V6.5Z" fill="#0F0F0F"/>
</svg>
